<svg version="1.2" xmlns="http://www.w3.org/2000/svg" viewBox="0 0 920 1245" width="920" height="1245">
	<style>
		.s0 { fill: #000000 }
		@media (prefers-color-scheme: dark) {
			.s0 { fill: #ffffff }
		}
	</style>
	<g id="Layer 1">
		<g id="Group 1">
			<g id="Group 2">
				<path id="Path 1" class="s0" d="m919.42 364.86c-2.1-65.36-23.83-130.31-62.95-182.85-36.55-49.1-86.43-87.3-143.4-109.73q-10.44-4.11-21.16-7.46c-5.74-1.8-9.57 2.66-9.86 7.33-2.4 2.87-3.06 7.17 0.36 10.59 36.49 36.63 60.66 83.7 73.85 133.42 15.25 57.41 15.64 117.72 8.88 176.42-6.65 57.79-20.14 114.78-37.47 170.24-17.19 54.98-38.37 108.65-61.62 161.34-23.51 53.31-49.06 105.68-74.87 157.91q-1.22 2.48-2.46 4.98c-17-7.45-34.77-13.09-52.95-16.78l0.02-0.08q-0.41-0.07-0.82-0.14c17.81-56.54 33.49-113.74 46.94-171.47 15.39-66.08 27.88-132.82 37.42-199.99 9.46-66.61 17.18-134.07 13.36-201.44-3.42-60.17-16.38-119.82-44.37-173.51-24.77-47.51-61.16-89.88-107.83-116.93-6.36-3.69-12.76-6.68-20.28-6.68-7.78 0-14.31 3.2-20.86 7.02-11.66 6.79-22.69 14.63-33.11 23.2-20.91 17.17-38.92 37.7-54.17 60.01-32.01 46.84-50.97 101.56-59.27 157.44-9.96 67.04-6.13 135.01 1.87 202.04 8.02 67.18 19.14 134.01 33.07 200.21 13.92 66.1 30.7 131.6 50.32 196.25q3.63 11.97 7.4 23.91-9.43 1.88-18.71 4.45-1.16 0.27-1.48 0.35l-9.02 2.18 0.22 0.57q-12.62 4.06-24.77 9.39c-23.47-47.49-46.78-95.05-68.59-143.32-23.74-52.53-45.65-105.93-63.82-160.66-18.24-54.95-32.67-111.26-41.13-168.58-8.75-59.32-10.82-120.76 1.58-179.74 10.55-50.16 31.61-99.04 65.32-138.07q6.23-7.2 12.95-13.94c3.42-3.42 2.77-7.72 0.36-10.59-0.28-4.67-4.11-9.13-9.85-7.33-57.99 18.22-110.7 52.88-150.2 99.12-42.47 49.73-68.53 111.59-75.59 176.54-3.62 33.19-1.84 66.76 4.82 99.47 6.84 33.6 18.75 65.95 33.1 97.02 14.42 31.2 31.44 61.11 49.19 90.51q27.8 46.03 57.67 90.74c39.95 59.78 82.64 117.72 127.83 173.63q8.4 10.38 16.9 20.66c0.56 0.67 1.23 1.17 1.96 1.55q11.62 36.96 23.22 73.9 6.89 21.91 13.77 43.82c11.67 3.47 25.81 6.48 41.77 8.83q0.81 0.13 1.61 0.24c24.96 3.61 54.28 5.68 85.66 5.68 31.37 0 60.69-2.07 85.65-5.68q0.8-0.11 1.61-0.24c15.94-2.35 30.07-5.35 41.74-8.82q6.88-21.91 13.77-43.84 11.61-36.94 23.23-73.89 1.11-0.55 1.95-1.55c45.81-55.4 89.16-112.85 129.77-172.17q30.42-44.41 58.76-90.18c18.26-29.49 36.14-59.29 51.9-90.21 30.87-60.61 53.01-126.31 50.81-195.09zm-334.88 730.19q0 0-0.01 0c-30.32 7.52-74.77 12.27-124.3 12.27-49.54 0-94-4.75-124.32-12.27-9.02 1.31-8.6 16.01 1.32 16.01h6.86q5.03 40.14 10.05 80.29 2.49 19.83 4.97 39.67c0.26 2.08 1.05 4.03 2.32 5.48 6.1 1.23 12.68 2.34 19.67 3.33 22.79 3.22 49.95 5.08 79.13 5.08 29.17 0 56.35-1.86 79.13-5.08 6.98-0.99 13.56-2.1 19.65-3.32 1.27-1.45 2.04-3.41 2.29-5.49q2.5-19.84 4.98-39.68 5.03-40.15 10.06-80.28h6.85c9.9 0 10.35-14.67 1.35-16.01z"/>
			</g>
		</g>
	</g>
</svg>
