<svg version="1.2" xmlns="http://www.w3.org/2000/svg" viewBox="0 0 2537 2666" width="2537" height="2666">
	<style>
		.s0 { fill: #000000 }
		@media (prefers-color-scheme: dark) {
			.s0 { fill: #ffffff }
		}
	</style>
	<g id="g1">
		<g id="group-R5">
			<path id="path3" fill-rule="evenodd" class="s0" d="m1268.04 2666l-753.37-452.5c-120.92-101.63-194.09-251.01-167.68-499.97-63.93 68.23-94.13 158.94-91.11 271.81-174.25-208.42-260.03-461.07-255.73-758.77l547.44-887.39h-204.43l-156.19 246.54c-199.1-212.08-88.81-585.72 215.15-585.72 200.83 0 302.76 95.58 360.62 287.88h1010.59c57.88-192.3 159.8-287.88 360.63-287.88 303.96 0 414.28 373.64 215.14 585.72l-156.19-246.54h-204.43l547.44 887.39c4.31 297.7-81.48 550.35-255.72 758.77 3.03-112.87-27.19-203.58-91.12-271.81 26.42 248.96-46.73 398.34-167.67 499.97zm219.71-1136.22h-439.42v128.29c0 84.41 56.81 155.55 134.28 177.27v254.4c-195.2-36.48-313.53-187.39-370.93-433.12 57.44-118.18 264.88-544.99 264.88-544.99l42.63-87.73-442.59-207.01c-21.6 46.16-23.97 99.02-6.59 146.94 17.38 47.91 53.07 86.96 99.24 108.56l91.83 42.94-251.12 516.69 6.61 32.02c84.2 408.22 300.23 620.22 649.77 626.4l1.7 0.03 1.69-0.03c349.55-6.18 565.59-218.18 649.78-626.4l6.6-32.02-251.1-516.69 91.81-42.94c46.17-21.6 81.87-60.65 99.25-108.56 17.39-47.92 15-100.78-6.57-146.94l-442.61 207.01 42.62 87.73c0 0 207.46 426.81 264.88 544.99-57.39 245.73-175.71 396.64-370.92 433.12v-254.4c77.49-21.72 134.28-92.86 134.28-177.27z"/>
		</g>
	</g>
</svg>
